<?xml version="1.0" standalone="no"?>
<!DOCTYPE svg PUBLIC "-//W3C//DTD SVG 20010904//EN"
 "http://www.w3.org/TR/2001/REC-SVG-20010904/DTD/svg10.dtd">
<svg version="1.0" xmlns="http://www.w3.org/2000/svg"
 width="701.000000pt" height="701.000000pt" viewBox="0 0 701.000000 701.000000"
 preserveAspectRatio="xMidYMid meet">

<g transform="translate(0.000000,701.000000) scale(0.100000,-0.100000)"
fill="#000000" stroke="none">
<path d="M10 4080 l0 -2930 3495 0 3495 0 0 2930 0 2930 -3495 0 -3495 0 0
-2930z m3757 2295 c163 -22 410 -78 498 -114 11 -5 52 -21 90 -37 39 -15 96
-40 128 -56 32 -16 63 -26 69 -22 7 4 8 3 4 -4 -4 -7 -2 -12 3 -12 26 0 392
-236 421 -270 3 -4 31 -29 62 -57 149 -134 293 -306 404 -483 219 -350 334
-740 351 -1192 11 -289 -16 -438 -148 -822 -44 -127 -78 -241 -76 -253 10 -53
-100 12 -213 127 -47 47 -121 115 -164 150 -44 36 -92 76 -107 90 -15 14 -62
57 -105 95 -43 39 -131 119 -196 178 -72 67 -122 106 -129 101 -7 -4 -9 -3 -5
4 6 10 -197 195 -267 242 -20 14 -37 29 -37 34 0 4 10 21 23 36 12 15 57 76
101 135 43 59 92 115 109 125 l31 19 60 -52 c34 -29 63 -54 66 -57 3 -3 34
-30 70 -60 36 -30 67 -57 70 -60 28 -31 245 -214 251 -212 5 1 8 -2 7 -6 -4
-12 68 -73 76 -64 4 4 6 2 4 -4 -1 -6 26 -36 62 -67 l65 -57 12 27 c56 131 65
403 19 608 -45 203 -117 393 -226 601 -58 109 -138 237 -151 242 -5 2 -9 8 -9
14 0 17 -61 88 -71 83 -5 -4 -7 0 -4 7 3 7 -40 59 -97 117 -137 139 -144 145
-159 136 -7 -5 -10 -4 -5 3 10 16 -154 126 -289 192 -287 141 -552 202 -875
201 -177 -1 -303 -16 -459 -55 -134 -34 -272 -86 -264 -98 3 -7 1 -8 -6 -4
-22 14 -306 -137 -294 -156 4 -7 1 -8 -6 -4 -7 5 -20 1 -29 -7 -10 -9 -36 -29
-59 -44 -68 -45 -153 -125 -146 -136 4 -6 1 -7 -6 -2 -16 10 -133 -104 -126
-123 2 -7 1 -11 -4 -8 -22 14 -174 -204 -251 -359 -100 -204 -166 -432 -195
-681 -15 -131 -20 -467 -7 -537 l7 -37 55 37 c61 40 216 192 299 293 30 36
101 109 157 164 57 54 101 102 98 107 -3 5 0 8 7 7 14 -3 86 97 91 126 5 31
-62 63 -146 71 -136 14 -184 52 -237 190 -31 81 -69 221 -69 254 0 32 120 66
230 65 91 -1 139 -16 197 -60 29 -22 37 -24 51 -13 16 12 16 12 0 -5 -15 -17
-15 -21 2 -49 29 -47 44 -151 34 -236 -5 -41 -14 -76 -20 -78 -18 -6 -73 45
-94 86 -19 39 -47 68 -55 59 -3 -3 22 -46 55 -96 32 -51 69 -110 80 -132 11
-22 24 -40 28 -40 4 0 27 21 52 46 25 26 77 74 115 108 39 33 69 63 68 66 -1
4 4 7 10 7 7 0 25 8 40 17 28 19 35 40 17 51 -6 4 -8 10 -5 15 3 5 -7 21 -21
37 -15 15 -39 53 -53 83 -23 50 -26 66 -25 170 0 96 4 125 24 175 38 97 101
195 168 262 67 67 150 122 161 107 70 -97 133 -209 149 -266 l10 -38 -45 -20
c-25 -11 -47 -20 -48 -20 -2 0 -18 26 -35 58 -18 31 -37 60 -42 63 -5 3 -9 9
-8 13 0 3 -3 14 -8 23 -8 14 -13 13 -40 -7 -17 -13 -28 -28 -25 -33 3 -6 1 -7
-4 -4 -12 8 -48 -36 -85 -103 -66 -120 -79 -247 -33 -326 17 -29 30 -43 37
-36 11 11 28 119 28 185 0 48 17 94 42 115 11 8 21 7 45 -7 25 -16 31 -27 35
-65 3 -26 8 -49 11 -52 3 -3 29 13 59 37 121 96 248 122 390 80 56 -17 318
-138 336 -156 2 -2 -4 -29 -14 -60 -35 -111 -195 -264 -339 -324 -111 -46
-210 -57 -330 -37 -131 22 -142 38 -73 111 59 65 125 110 188 130 63 20 93 42
85 62 -2 8 0 11 5 8 6 -3 10 3 10 13 0 25 -18 32 -81 32 -66 0 -179 -56 -163
-81 3 -5 -1 -6 -9 -3 -23 8 -143 -129 -183 -211 -34 -70 -41 -113 -16 -108 6
2 9 -3 6 -11 -3 -7 10 -25 28 -40 18 -15 44 -37 58 -50 14 -12 59 -50 101 -84
42 -34 87 -74 100 -89 13 -16 77 -74 142 -130 l119 -103 49 43 c27 23 47 48
44 55 -3 7 0 10 6 7 12 -8 34 15 204 200 66 72 137 150 160 174 22 24 39 47
37 52 -1 5 2 8 6 7 12 -4 73 68 64 76 -4 4 -2 6 4 4 10 -3 121 120 181 200 16
20 40 51 55 67 16 17 28 35 28 41 0 6 -34 32 -76 59 -66 41 -74 50 -61 60 9 7
15 14 12 16 -2 3 4 5 13 6 9 1 49 13 88 26 102 36 335 85 537 112 l48 6 -5
-58 c-4 -32 -13 -191 -22 -353 -9 -162 -17 -297 -19 -299 -2 -2 -31 18 -64 44
-35 26 -66 43 -73 39 -6 -4 -8 -3 -5 3 4 6 -4 18 -18 27 -25 16 -26 16 -78
-37 -44 -44 -260 -275 -292 -311 -5 -7 -54 -58 -108 -114 -59 -61 -95 -107
-91 -114 4 -6 3 -8 -3 -5 -14 9 -165 -152 -159 -169 3 -7 0 -11 -7 -8 -17 6
-190 -172 -181 -187 4 -7 3 -9 -3 -6 -6 4 -62 -47 -123 -113 -62 -66 -116
-120 -120 -120 -4 0 -34 24 -67 53 -33 28 -110 97 -173 152 -62 55 -118 99
-124 97 -6 -2 -8 -1 -4 3 8 8 -72 81 -84 77 -5 -1 -7 2 -3 8 3 5 3 10 -2 10
-4 0 -24 15 -43 33 -20 17 -65 57 -100 87 -36 30 -67 57 -70 60 -3 3 -15 14
-28 24 l-22 19 -88 -84 c-146 -141 -766 -744 -931 -906 -86 -84 -159 -153
-162 -153 -18 0 -136 208 -145 257 -1 6 -14 51 -28 100 -64 218 -97 441 -103
698 -8 301 28 528 127 807 46 128 161 372 210 443 17 25 28 50 24 57 -4 6 -3
8 3 5 5 -3 18 8 28 25 88 149 347 430 505 547 47 35 84 68 82 73 -1 5 2 7 8 3
5 -3 36 12 67 33 32 22 77 49 101 61 26 13 40 26 36 33 -4 6 -3 8 3 5 6 -4 55
14 109 39 192 89 432 158 654 189 136 19 453 18 597 0z m-1102 -1584 c3 -5 2
-12 -3 -15 -5 -3 -9 1 -9 9 0 17 3 19 12 6z m1621 -1120 c-3 -5 -6 -405 -6
-889 l0 -879 -64 -32 c-76 -37 -193 -69 -288 -78 l-68 -6 -2 947 -3 946 218 0
c125 0 216 -4 213 -9z m-1284 -181 l98 0 0 -850 c0 -714 -2 -850 -14 -850 -7
0 -31 6 -53 14 -22 8 -103 31 -179 51 -76 21 -151 44 -166 52 l-28 14 0 791 0
791 122 -6 c66 -4 165 -7 220 -7z m1866 -205 c2 -2 3 -243 2 -536 0 -383 -4
-537 -12 -546 -41 -50 -378 -240 -400 -227 -4 3 -8 302 -8 664 l0 659 208 -6
c114 -3 208 -7 210 -8z m-2368 -679 c0 -555 -1 -605 -17 -617 -9 -8 -14 -9
-10 -3 4 7 -13 20 -45 33 -69 29 -298 177 -321 208 -31 40 -37 133 -34 567 l2
416 213 0 212 0 0 -604z m1188 419 c2 -2 0 -287 -4 -634 l-7 -631 -209 0 -208
0 0 633 c0 349 3 637 7 641 7 6 413 -3 421 -9z m-1787 -317 c0 -73 4 -167 7
-209 9 -96 1 -97 -88 -13 -37 35 -71 60 -75 56 -5 -4 -5 -1 -1 6 4 7 -12 34
-43 70 -47 54 -141 197 -141 214 0 4 77 8 170 8 l170 0 1 -132z m3522 112 c3
-11 2 -18 -2 -16 -4 3 -17 -14 -28 -37 -11 -24 -48 -77 -81 -118 -62 -79 -222
-243 -252 -259 -15 -8 -16 -5 -9 33 4 23 8 123 9 223 0 99 3 184 7 187 3 4 84
7 179 7 163 0 172 -1 177 -20z"/>
</g>
</svg>
