<?xml version="1.0" standalone="no"?>
<!DOCTYPE svg PUBLIC "-//W3C//DTD SVG 20010904//EN"
 "http://www.w3.org/TR/2001/REC-SVG-20010904/DTD/svg10.dtd">
<svg version="1.0" xmlns="http://www.w3.org/2000/svg"
 width="960.000000pt" height="540.000000pt" viewBox="0 0 960.000000 540.000000"
 preserveAspectRatio="xMidYMid meet">

<g transform="translate(0.000000,540.000000) scale(0.100000,-0.100000)"
fill="#000000" stroke="none">
<path d="M988 5383 c-18 -20 -39 -109 -31 -130 6 -14 12 -16 64 -13 21 1 40
-3 44 -9 14 -24 31 -8 48 47 20 67 21 81 3 105 -9 12 -27 17 -63 17 -35 0 -55
-5 -65 -17z"/>
<path d="M1820 5385 c-17 -21 -4 -111 18 -121 24 -10 149 -5 197 8 22 6 61 10
87 9 26 -1 57 3 70 10 13 7 30 15 38 19 8 4 16 17 18 29 4 27 12 27 41 0 30
-28 45 -67 61 -151 7 -38 16 -68 21 -68 5 0 9 -11 9 -24 0 -12 5 -38 11 -56 9
-26 9 -34 -2 -41 -10 -6 -11 -9 -1 -9 6 0 12 -9 12 -20 0 -11 7 -20 15 -20 12
0 15 19 15 115 0 90 5 130 21 181 17 52 24 64 38 59 32 -13 36 -9 39 42 l3 53
-349 0 c-295 0 -352 -2 -362 -15z"/>
<path d="M3120 5391 c0 -4 11 -20 25 -35 33 -36 88 -36 111 0 15 22 15 27 3
35 -18 11 -139 12 -139 0z"/>
<path d="M3979 5363 c-39 -35 -42 -57 -8 -66 28 -7 23 -27 -6 -27 -15 0 -25 6
-25 14 0 7 -7 19 -15 26 -18 15 -80 1 -124 -27 l-23 -15 25 -26 c36 -39 65
-102 72 -158 6 -48 6 -49 -32 -74 -21 -14 -44 -30 -50 -37 -16 -15 -117 -6
-155 13 -15 8 -32 14 -38 14 -6 0 -20 9 -32 20 -28 25 -33 25 -55 -4 -33 -42
-77 -42 -94 -1 -2 6 -19 33 -36 61 -51 80 -110 94 -132 32 -24 -68 -3 -139 67
-218 7 -8 21 -27 33 -42 25 -34 70 -37 101 -8 33 31 52 25 111 -34 51 -52 54
-58 65 -128 27 -178 25 -212 -22 -281 -16 -24 -17 -30 -5 -38 8 -5 28 -7 44
-3 51 10 128 12 160 5 l30 -8 1 121 c0 125 5 141 60 221 8 11 14 34 14 53 0
22 6 35 18 39 57 20 77 99 43 167 -42 81 -42 92 -10 132 16 20 34 55 40 78 20
72 31 96 55 115 31 24 47 67 34 90 -5 10 -24 21 -41 23 -26 4 -39 -1 -70 -29z
m-129 -519 c0 -8 -5 -12 -10 -9 -6 4 -8 11 -5 16 9 14 15 11 15 -7z"/>
<path d="M4175 5390 c3 -5 14 -10 24 -10 48 0 87 -86 96 -213 6 -80 9 -90 38
-121 33 -34 56 -39 93 -18 25 13 49 130 36 177 -4 17 -4 53 1 81 8 48 12 54
53 75 24 13 44 27 44 31 0 5 -88 8 -196 8 -127 0 -193 -3 -189 -10z"/>
<path d="M4705 5390 c-11 -17 5 -32 21 -19 8 6 14 15 14 20 0 12 -27 11 -35
-1z"/>
<path d="M4780 5396 c0 -2 17 -15 38 -29 l39 -25 2 -106 c2 -111 -10 -155 -48
-175 -15 -9 -21 -3 -39 33 -12 24 -22 52 -22 62 -1 27 -36 66 -57 62 -22 -4
-31 -36 -32 -114 -1 -39 -6 -66 -15 -73 -8 -7 -56 -14 -106 -16 -51 -2 -97 -8
-103 -14 -5 -5 -16 -7 -25 -4 -9 4 -13 2 -9 -4 4 -6 -9 -26 -28 -46 -39 -40
-45 -74 -16 -99 28 -24 46 -95 29 -115 -8 -11 -12 -40 -10 -87 3 -87 -14 -163
-38 -176 -27 -14 -31 9 -28 137 3 112 -9 161 -47 193 -26 22 -52 -12 -57 -73
-3 -34 -13 -64 -27 -84 l-23 -31 22 -63 c20 -55 21 -69 11 -106 -15 -57 -14
-83 3 -102 8 -9 18 -39 23 -66 l8 -50 80 -27 c44 -15 93 -27 110 -27 l29 -1
-22 16 c-12 8 -22 26 -22 39 0 13 -4 26 -9 29 -5 3 -11 16 -14 28 -3 13 -11
43 -17 67 -14 58 -6 77 43 99 50 22 95 66 103 99 7 26 4 25 63 28 53 4 168 77
177 112 15 56 -23 93 -94 93 -26 0 -72 37 -72 59 0 7 -6 11 -15 8 -19 -8 -28
9 -16 30 7 14 31 20 113 28 89 9 111 8 161 -7 79 -24 94 -23 134 12 39 34 59
37 102 13 16 -10 33 -14 37 -10 4 4 11 35 15 68 10 87 36 108 120 100 28 -2
34 -79 10 -134 -24 -55 -49 -71 -102 -62 -39 7 -39 6 -28 -17 12 -28 107 -88
137 -88 11 0 33 13 49 29 16 15 44 36 62 45 27 14 32 22 26 39 -35 112 -44
167 -25 167 6 0 10 15 10 34 0 42 -28 58 -49 27 -20 -30 -41 -26 -41 7 0 21 7
32 28 43 15 8 31 20 35 27 6 9 13 9 28 1 15 -8 24 -7 35 2 9 7 30 10 57 6 23
-3 47 -3 52 1 14 10 35 49 35 66 0 8 4 16 9 18 4 2 11 27 15 56 l7 52 -232 0
c-216 0 -231 -1 -224 -17 17 -39 17 -72 0 -89 -15 -16 -17 -15 -22 5 -3 11 -9
21 -14 21 -15 0 -10 42 8 62 15 17 14 18 -42 18 -43 0 -61 -4 -70 -17 -12 -16
-16 -16 -65 0 -46 15 -140 24 -140 13z"/>
<path d="M5597 5362 c-9 -21 -17 -45 -17 -53 0 -8 -4 -19 -9 -24 -12 -13 -15
-45 -6 -71 6 -19 10 -21 41 -11 19 6 37 8 40 5 8 -9 -40 -81 -73 -109 -42 -35
-106 -169 -89 -187 7 -6 20 9 78 93 23 33 45 62 50 63 4 2 8 8 8 13 0 5 23 39
51 74 50 64 58 95 24 95 -15 0 -21 16 -7 22 4 2 17 31 29 66 l22 62 -63 0 -62
0 -17 -38z"/>
<path d="M5963 5385 c-12 -9 -25 -31 -29 -50 -8 -43 -19 -45 -33 -5 -5 17 -14
30 -20 30 -5 0 -30 -28 -55 -62 -25 -35 -51 -68 -56 -75 -6 -7 -10 -14 -10
-17 0 -3 -48 -70 -107 -148 -130 -172 -139 -188 -123 -198 7 -4 26 -4 43 1 17
5 54 6 83 3 46 -6 54 -4 66 15 16 26 30 27 53 1 22 -24 31 -25 68 -5 16 8 40
12 56 9 16 -4 32 -1 35 5 13 20 25 12 41 -25 20 -49 19 -103 -4 -168 l-19 -54
37 -163 c27 -121 40 -164 51 -165 8 0 28 -6 43 -12 16 -7 41 -12 57 -12 32 0
60 -9 60 -19 0 -16 -131 -141 -154 -147 -15 -3 -33 -16 -42 -28 -23 -33 -51
-136 -53 -194 0 -29 -5 -60 -10 -70 -11 -22 -18 -269 -7 -300 4 -12 11 -20 16
-17 12 7 57 -22 64 -41 3 -9 1 -24 -4 -35 -14 -25 4 -59 32 -59 17 0 19 -5 15
-27 -6 -31 1 -55 14 -48 4 3 15 -8 24 -24 8 -17 26 -42 40 -57 14 -15 25 -32
25 -39 0 -10 52 -55 63 -55 3 0 25 -20 49 -44 49 -48 117 -74 218 -83 30 -3
62 -11 70 -18 8 -7 57 -15 112 -19 54 -3 107 -10 119 -14 21 -8 21 -9 3 -17
-32 -13 -107 -27 -159 -28 -47 -2 -50 -4 -53 -30 -2 -18 2 -29 13 -33 9 -4 31
-20 48 -35 17 -16 35 -29 39 -29 4 0 19 -22 33 -50 21 -42 31 -51 67 -60 33
-9 52 -9 98 4 31 9 67 16 81 16 21 0 20 -3 -15 -24 -36 -21 -38 -24 -20 -34
10 -5 53 -18 94 -27 41 -10 94 -24 118 -31 23 -8 51 -14 60 -14 10 0 43 -9 75
-20 69 -24 117 -26 117 -5 0 9 20 36 45 60 50 50 93 61 102 25 9 -34 32 -5 80
100 24 52 48 103 53 112 19 34 12 48 -30 54 -50 8 -57 18 -30 41 11 10 20 22
20 28 0 6 25 34 55 63 61 59 94 66 140 30 24 -18 27 -26 22 -60 -3 -21 -13
-50 -22 -64 -13 -21 -21 -24 -48 -19 -40 8 -57 -9 -82 -80 -10 -27 -22 -54
-26 -60 -3 -5 -22 -54 -40 -107 l-33 -97 22 -44 c16 -32 21 -55 17 -79 -5 -33
-2 -38 52 -83 32 -27 65 -56 74 -64 35 -35 307 -233 353 -258 28 -15 29 -14
23 9 -7 28 -60 179 -68 193 -4 6 -14 35 -24 65 -10 30 -28 78 -40 105 -31 69
-65 163 -65 178 1 18 28 -35 75 -148 46 -108 109 -247 153 -334 22 -44 32 -55
53 -55 37 -2 99 -46 99 -71 0 -42 27 -61 124 -90 53 -15 94 -30 92 -32 -3 -3
-46 0 -96 7 -50 7 -102 9 -115 6 -20 -5 -22 -10 -16 -38 4 -18 20 -58 34 -88
30 -62 28 -76 -5 -34 -13 16 -37 45 -55 64 l-31 35 -8 -40 c-4 -22 -2 -148 4
-280 12 -223 15 -529 6 -495 -2 8 -8 71 -13 140 -5 69 -14 148 -20 175 -5 28
-10 98 -10 157 -1 129 -19 309 -33 323 -12 13 -104 -84 -143 -151 -15 -27 -39
-60 -54 -72 l-26 -24 -3 22 c-4 22 31 84 73 130 26 29 78 120 72 127 -8 7
-113 -37 -147 -62 -19 -14 -58 -34 -88 -45 -30 -12 -73 -31 -96 -44 -22 -13
-68 -32 -101 -41 -33 -9 -64 -21 -70 -25 -38 -31 -196 -113 -225 -117 l-35 -5
35 31 c41 35 110 71 202 105 37 13 81 35 100 49 30 23 125 76 207 116 141 68
176 88 179 102 2 12 -18 23 -77 43 -104 35 -147 37 -189 6 -27 -20 -31 -29
-30 -63 2 -48 -16 -62 -53 -40 -25 15 -33 15 -71 2 -24 -7 -54 -25 -66 -39
-23 -24 -24 -24 -38 -5 -8 10 -14 24 -14 31 0 7 -9 15 -19 19 -29 9 -32 29
-15 97 9 34 14 76 11 95 -6 33 -47 97 -79 121 -34 25 -48 44 -41 55 4 6 0 8
-9 4 -12 -4 -14 -1 -10 15 4 18 2 20 -14 13 -43 -18 -60 -16 -82 8 -31 33 -26
61 12 65 24 3 37 -4 67 -37 21 -23 47 -41 57 -41 11 0 31 -11 46 -25 15 -14
32 -25 38 -25 6 0 20 -8 30 -17 29 -26 53 -6 52 43 -1 45 -41 144 -58 144 -7
0 -33 13 -59 30 -40 25 -58 30 -108 30 -64 0 -175 -24 -198 -43 -7 -6 -32 -12
-55 -12 -139 -3 -135 -2 -127 -32 10 -37 -5 -90 -29 -103 -15 -8 -29 -7 -56 6
-45 21 -52 39 -31 76 l16 28 -42 0 c-50 0 -187 -34 -196 -49 -8 -12 -138 -71
-158 -71 -24 0 -9 24 26 42 53 27 50 31 -21 25 -76 -7 -90 5 -25 21 128 33
282 62 324 62 49 0 187 25 209 38 15 9 0 52 -18 52 -7 0 -40 -8 -73 -19 -50
-15 -63 -16 -73 -5 -10 11 -6 20 19 49 l32 36 -23 24 c-13 14 -29 25 -36 25
-7 0 -14 5 -16 12 -3 9 -13 8 -39 -4 -19 -9 -61 -21 -94 -28 -33 -7 -76 -20
-95 -30 -19 -10 -66 -26 -105 -35 -38 -10 -75 -22 -82 -27 -7 -5 -20 -8 -30
-6 -13 3 -7 9 22 22 173 80 249 118 272 136 31 24 25 25 -21 4 -42 -21 -63
-14 -72 23 -8 32 -20 43 -48 43 -10 0 -55 18 -100 40 -80 39 -200 75 -366 111
-100 21 -124 23 -114 8 3 -6 8 -36 9 -66 3 -49 6 -57 34 -74 16 -10 40 -37 53
-60 36 -65 44 -78 61 -96 8 -10 27 -43 41 -73 23 -50 29 -55 63 -60 l38 -5
-53 -34 c-51 -32 -72 -67 -56 -92 5 -9 38 -10 118 -7 l111 5 -63 -13 c-70 -15
-105 -31 -97 -43 3 -5 -23 -20 -58 -34 -42 -17 -61 -30 -59 -41 2 -10 -5 -14
-20 -14 -13 1 -42 1 -65 0 l-43 -2 0 -44 c0 -90 24 -114 95 -95 22 6 55 13 74
16 33 5 34 5 27 -23 -14 -66 -15 -84 -2 -84 26 0 12 -31 -16 -37 -15 -3 -28
-11 -28 -18 0 -15 118 -30 151 -20 32 10 107 -15 129 -43 36 -45 22 -61 -55
-64 -20 -1 -40 3 -43 8 -4 5 -27 18 -52 29 -25 11 -47 23 -50 27 -9 12 -96 32
-113 25 -10 -4 -17 -15 -17 -25 0 -10 -12 -29 -26 -43 l-26 -24 4 -145 c2 -90
-1 -147 -7 -149 -5 -3 -20 10 -32 28 -18 27 -22 46 -21 106 0 60 -4 80 -22
110 -15 25 -25 33 -30 25 -4 -7 -12 -10 -18 -6 -6 3 -13 -2 -16 -11 -3 -10 -4
-6 -2 9 3 27 3 27 -25 12 -16 -8 -29 -21 -29 -29 0 -33 25 -95 40 -97 12 -3
14 -16 12 -69 -3 -44 2 -78 12 -104 9 -20 16 -45 16 -54 0 -9 14 -43 30 -76
16 -33 30 -69 30 -80 0 -11 12 -56 28 -100 34 -99 40 -77 22 82 -14 124 -8
192 15 173 13 -11 28 -103 41 -248 4 -43 11 -75 18 -78 13 -5 99 40 170 90 22
14 50 29 63 31 13 3 34 7 48 10 26 6 177 150 228 219 16 20 45 44 65 53 21 8
49 22 65 30 15 8 46 15 70 16 35 2 42 -1 45 -18 4 -29 -54 -95 -83 -95 -13 0
-36 -11 -52 -24 -15 -13 -39 -27 -52 -31 -15 -5 -19 -10 -12 -14 26 -16 -37
-109 -74 -111 -6 0 -26 -13 -45 -30 -19 -16 -40 -29 -46 -30 -21 0 -62 -56
-73 -97 -9 -33 -27 -56 -87 -109 -41 -38 -73 -73 -71 -78 2 -6 1 -35 -3 -63
-5 -45 -3 -59 19 -100 25 -47 28 -48 106 -68 92 -25 114 -33 137 -52 9 -8 44
-17 78 -20 58 -6 63 -4 115 32 65 44 127 62 154 43 27 -19 91 -98 91 -112 0
-7 10 -22 23 -34 24 -23 65 -28 95 -13 79 40 135 34 161 -18 11 -20 30 -46 43
-58 23 -21 110 -68 183 -98 22 -9 55 -23 73 -31 18 -8 39 -14 47 -14 8 0 15
-5 15 -11 0 -5 4 -8 9 -4 5 3 12 1 16 -4 3 -6 11 -8 18 -6 14 6 44 -11 36 -20
-14 -13 -145 -17 -207 -6 -50 10 -92 10 -164 3 -76 -8 -109 -8 -155 3 -32 8
-77 14 -100 15 -33 0 -47 6 -70 30 l-28 31 -90 -7 c-64 -4 -100 -12 -124 -27
-19 -11 -48 -21 -65 -21 -26 0 -32 5 -36 29 -3 15 -16 36 -30 46 -21 15 -32
16 -70 8 -110 -24 -122 -23 -170 12 -25 19 -62 41 -82 51 l-37 17 -3 -32 -3
-32 -24 37 c-12 21 -27 38 -31 38 -5 0 -11 -18 -15 -40 -4 -22 -13 -47 -21
-54 -8 -8 -14 -20 -14 -26 0 -7 -13 -10 -32 -8 -25 2 -35 -2 -43 -18 -16 -33
-77 -26 -118 13 -42 40 -69 53 -87 43 -51 -27 -130 -18 -130 15 0 8 -12 17
-27 20 -16 4 -36 10 -45 16 -10 5 -22 9 -27 9 -13 0 -31 -64 -31 -110 -1 -46
-40 -121 -72 -140 -23 -13 -37 -12 -120 5 -51 10 -105 18 -121 17 -15 -1 -49
4 -75 12 -26 8 -101 24 -167 36 -66 12 -176 32 -245 45 -69 13 -159 28 -200
35 -41 6 -136 22 -210 36 -242 43 -503 84 -539 84 -20 0 -65 9 -101 21 -36 11
-96 22 -135 23 -82 4 -91 17 -47 68 16 18 48 61 71 96 23 34 67 90 98 125 31
34 68 80 82 103 26 39 27 40 56 27 17 -7 45 -10 63 -7 23 3 49 -3 87 -20 54
-26 129 -34 140 -16 11 17 103 11 143 -9 58 -29 137 -43 272 -46 79 -3 141
-10 168 -19 62 -22 98 -12 125 37 12 22 28 50 35 63 7 13 17 24 23 24 5 0 9
10 9 23 0 13 4 27 10 33 10 10 27 42 96 174 21 41 44 81 51 88 7 8 11 18 8 23
-4 5 -3 9 2 9 4 0 14 14 22 31 8 18 25 35 42 41 16 5 29 13 29 16 0 13 -75 41
-125 47 -27 4 -63 13 -80 20 -17 7 -108 18 -205 24 -96 6 -236 20 -310 31 -74
11 -155 20 -179 20 -37 0 -42 -2 -36 -17 4 -10 7 -25 7 -33 0 -8 6 -58 14
-110 26 -183 28 -220 10 -220 -13 0 -16 -12 -16 -57 0 -78 -10 -133 -24 -133
-16 0 -34 71 -40 161 -3 41 -13 93 -22 114 -11 28 -14 55 -10 88 5 42 2 52
-19 73 -26 26 -61 32 -68 12 -7 -23 -60 5 -92 49 -33 46 -96 75 -170 77 l-41
1 19 49 c10 27 29 63 43 79 45 53 15 42 -42 -16 -30 -32 -59 -57 -64 -57 -4 0
-22 22 -39 49 -65 101 -175 181 -253 184 -40 2 -40 2 -57 -50 -9 -29 -24 -62
-34 -74 -11 -12 -36 -56 -57 -98 -22 -42 -52 -90 -67 -106 -15 -17 -35 -42
-43 -56 -33 -57 -81 -127 -131 -192 -74 -95 -220 -183 -351 -211 -33 -7 -36
-26 -8 -44 11 -7 20 -17 20 -24 0 -17 -43 -78 -55 -78 -6 0 -18 -13 -28 -29
-9 -15 -35 -47 -58 -70 -40 -39 -43 -41 -60 -25 -11 10 -19 29 -19 44 0 34
-14 40 -90 40 -51 0 -61 3 -78 25 -11 14 -24 25 -29 25 -5 0 -25 -16 -44 -36
-18 -19 -58 -49 -88 -66 l-55 -31 -81 11 c-44 7 -105 12 -134 12 l-52 0 20
-29 c12 -16 21 -37 21 -46 0 -10 5 -34 11 -54 13 -43 6 -59 -75 -188 -60 -95
-110 -159 -142 -179 -21 -15 -25 -14 -46 6 -22 20 -22 22 -5 31 16 9 13 14
-29 41 -41 28 -47 30 -56 15 -15 -27 -26 -20 -33 23 -8 48 1 81 21 73 7 -3 14
0 14 6 0 6 -7 11 -15 11 -8 0 -19 9 -25 20 -19 35 -31 11 -26 -50 5 -51 3 -58
-14 -63 -15 -4 -20 -14 -20 -42 0 -35 -2 -37 -26 -31 -17 5 -23 3 -19 -4 8
-13 -23 -65 -33 -55 -4 3 -7 32 -7 63 0 50 -2 57 -20 57 -15 0 -19 -6 -17 -24
2 -24 2 -24 -18 -6 -13 12 -17 22 -11 33 6 10 4 21 -5 30 -8 7 -11 18 -8 24 4
6 1 14 -7 19 -15 9 -13 92 2 97 5 2 14 13 20 24 9 17 8 19 -9 14 -22 -7 -39 8
-22 19 15 9 12 25 -4 25 -16 0 -26 21 -26 56 0 36 36 31 60 -8 15 -25 20 -28
25 -16 6 14 10 14 35 1 24 -11 33 -12 49 -1 28 17 35 39 16 57 -11 11 -18 12
-26 4 -8 -8 -8 -13 0 -17 6 -4 11 -14 11 -21 0 -12 -6 -11 -34 3 -19 9 -32 22
-30 27 3 6 -1 3 -7 -6 -26 -34 -84 24 -72 71 3 11 12 20 19 20 8 0 14 9 14 20
0 11 -4 20 -10 20 -5 0 -10 -7 -10 -16 0 -9 -6 -14 -12 -11 -8 2 -12 17 -10
33 2 19 0 25 -6 16 -7 -10 -11 -10 -22 3 -9 11 -9 19 -2 28 6 7 9 23 5 35 -3
13 -2 22 3 21 22 -4 33 2 28 15 -3 9 4 19 17 26 20 11 21 10 17 -8 -7 -26 31
-55 53 -41 11 8 9 14 -15 33 -19 16 -24 25 -15 28 11 4 10 8 -3 21 -10 10 -23
14 -34 10 -11 -4 -15 -3 -10 5 9 15 -11 25 -30 14 -15 -8 -15 -10 0 -15 24 -9
21 -46 -3 -40 -24 6 -34 43 -17 63 7 8 16 29 20 45 3 17 9 41 13 55 3 14 6 68
7 120 1 108 8 122 73 163 51 31 65 33 83 12 7 -8 21 -15 30 -15 24 0 57 -42
72 -92 15 -50 53 -73 143 -88 39 -6 86 -16 106 -21 20 -5 54 -9 75 -9 22 0 80
-7 129 -14 50 -8 124 -17 165 -21 41 -3 113 -17 159 -32 72 -22 95 -25 164
-20 87 7 134 32 166 88 9 16 21 29 28 29 12 0 63 46 63 56 0 10 -40 -17 -49
-34 -13 -22 -28 -7 -37 35 -5 26 -2 34 20 48 23 15 30 16 58 4 l31 -13 83 90
c91 97 125 151 103 164 -20 13 -34 2 -50 -43 -15 -40 -18 -42 -60 -45 -24 -2
-47 -9 -51 -15 -6 -9 -10 -9 -17 1 -4 8 -11 13 -15 13 -3 -1 -6 2 -6 7 0 4 14
11 30 15 25 6 28 10 18 20 -33 33 -85 47 -205 57 -106 8 -132 14 -176 38 -64
34 -95 86 -80 135 5 19 5 60 0 100 -8 64 -7 70 20 115 38 64 42 75 31 90 -22
27 12 10 72 -36 67 -50 172 -129 344 -257 60 -44 129 -97 154 -117 26 -21 52
-38 58 -38 7 0 30 22 52 48 22 26 52 54 67 62 16 9 39 39 57 75 17 33 39 72
49 87 34 47 66 150 83 258 39 254 59 337 113 460 26 59 25 82 -8 150 -11 22
-32 75 -48 118 -36 97 -167 412 -215 516 -35 77 -44 128 -27 154 4 7 6 24 3
37 -4 23 -4 23 -31 -8 -15 -18 -127 -171 -248 -342 -120 -170 -236 -333 -256
-361 -20 -28 -37 -54 -37 -57 0 -3 24 -8 53 -12 28 -4 68 -14 87 -22 19 -8 55
-17 80 -19 75 -8 130 -32 130 -58 0 -31 -19 -47 -41 -35 -10 5 -92 14 -181 20
-90 6 -164 12 -166 14 -2 2 -18 -3 -36 -10 -21 -9 -78 -13 -171 -14 -235 0
-248 -1 -275 -19 -20 -13 -43 -16 -108 -13 -53 2 -88 -1 -97 -9 -10 -9 -24 -8
-57 3 -24 9 -47 12 -53 8 -5 -4 -21 -5 -35 -1 -17 4 -30 1 -41 -9 -14 -14 -13
-19 8 -56 29 -52 29 -55 -7 -55 -19 0 -34 7 -42 20 -19 30 -28 24 -17 -10 7
-19 28 -40 59 -59 27 -17 54 -40 61 -53 17 -33 50 -68 65 -68 8 0 15 19 19 48
3 26 10 57 15 68 11 29 88 54 162 54 53 0 58 -2 59 -22 1 -13 3 -33 4 -46 2
-23 -9 -30 -20 -12 -10 15 -63 12 -90 -6 -27 -18 -32 -49 -11 -77 19 -25 29
-22 130 29 125 64 143 78 150 118 4 19 13 37 21 40 18 6 19 -3 5 -39 -8 -21
-7 -26 2 -23 7 3 39 13 71 23 31 10 55 20 52 23 -5 6 68 31 89 32 5 0 -5 -14
-23 -30 -17 -17 -31 -36 -31 -43 0 -6 13 2 28 20 39 45 120 83 152 71 37 -14
60 -38 60 -63 0 -36 -23 -49 -147 -79 -38 -10 -55 -10 -63 -2 -8 8 -15 6 -25
-8 -8 -10 -19 -15 -26 -11 -9 6 -10 -6 -4 -50 7 -56 6 -57 -17 -50 -12 4 -31
9 -40 11 -10 3 -18 -2 -21 -13 -4 -17 -5 -17 -6 0 -1 18 -26 23 -36 7 -4 -6
-10 -8 -15 -5 -4 3 -13 -2 -20 -11 -7 -8 -19 -13 -27 -10 -11 5 -32 -4 -71
-30 -2 -1 1 -11 6 -20 11 -19 3 -26 -66 -58 -18 -8 -35 -23 -38 -33 -12 -39
-23 -47 -99 -70 -67 -19 -93 -22 -158 -17 -69 6 -80 4 -100 -14 -35 -32 -122
-82 -143 -82 -11 0 -27 -13 -37 -30 -21 -35 -47 -39 -48 -7 0 21 -1 21 -9 2
-7 -17 -9 -17 -9 -2 -1 9 -6 17 -12 17 -5 0 -8 4 -4 10 3 5 12 7 19 4 22 -9
31 47 10 63 -15 11 -16 16 -5 37 8 15 10 32 5 47 -4 13 -7 30 -5 37 4 23 -17
38 -48 36 -16 -1 -34 -5 -39 -8 -21 -13 -101 112 -86 135 10 17 35 9 46 -16 6
-14 17 -25 24 -25 7 0 15 -6 18 -12 5 -10 7 -10 12 0 3 6 12 12 20 12 23 0 18
98 -6 135 -11 17 -20 40 -20 52 0 13 -12 30 -30 43 -24 17 -30 18 -30 6 0 -8
-7 -19 -15 -23 -8 -5 -23 -33 -34 -62 l-18 -52 -7 32 c-3 17 -6 40 -6 51 0 10
-10 29 -23 41 -25 24 -37 87 -16 87 8 0 7 6 -4 18 -10 10 -17 30 -17 44 0 25
-21 50 -53 61 -18 7 -23 22 -8 31 5 4 2 20 -6 39 -22 43 -53 83 -53 67 0 -19
-12 -4 -14 17 -1 10 -11 36 -23 58 -12 23 -25 59 -28 80 -9 50 -18 67 -65 130
-20 28 -42 67 -49 87 -7 20 -15 38 -19 40 -4 2 -31 35 -61 73 -30 39 -73 89
-96 112 -27 27 -47 58 -54 85 -6 24 -24 59 -41 78 -52 62 -205 254 -222 280
-9 14 -29 39 -45 56 -56 62 -78 90 -90 114 -7 14 -16 32 -21 40 -5 8 -15 27
-23 41 -8 14 -27 46 -44 71 -16 25 -35 54 -42 64 -9 15 -12 -454 -12 -2088
l-1 -2108 2081 0 c1485 0 2086 3 2101 11 14 8 23 8 31 0 8 -8 307 -11 1033
-11 l1021 0 -5 27 c-2 16 -8 33 -12 38 -11 14 -60 166 -60 185 1 19 46 -88 55
-132 4 -18 11 -39 16 -48 4 -8 10 -27 14 -43 l5 -27 129 0 c111 0 130 2 135
17 6 14 8 14 21 -3 14 -18 15 -18 21 3 9 31 32 38 26 7 l-4 -24 696 0 c600 0
696 2 696 14 0 11 14 16 48 18 l47 3 2 50 c1 28 2 63 2 78 1 22 8 30 30 38 16
6 32 17 35 25 8 22 32 17 69 -16 52 -45 57 -31 50 145 -3 88 -2 159 3 168 7
12 10 0 12 -46 1 -34 7 -109 12 -167 6 -58 10 -108 10 -111 0 -3 12 -11 26
-18 21 -9 32 -9 57 4 45 22 54 18 21 -10 -16 -14 -32 -25 -36 -25 -5 0 -8 -17
-8 -38 0 -21 -5 -43 -11 -49 -6 -6 -9 -21 -7 -34 l3 -24 618 -3 617 -2 0 2700
0 2700 -1675 0 c-1484 0 -1674 -2 -1669 -15 8 -20 -25 -20 -90 0 -65 20 -175
20 -203 0z m-41 -149 c-9 -15 -2 -100 8 -110 14 -14 12 -35 -5 -52 -8 -8 -22
-25 -30 -37 -13 -19 -17 -20 -25 -7 -11 18 -12 51 -4 153 6 63 10 77 28 85 16
7 22 6 27 -7 4 -9 4 -20 1 -25z m2359 -307 c64 -34 23 -140 -60 -153 -53 -8
-110 33 -111 80 -1 56 113 105 171 73z m-1881 -588 c0 -11 -25 -21 -51 -21
-26 0 -24 18 4 23 39 8 47 7 47 -2z m-80 -21 c0 -5 -5 -10 -11 -10 -5 0 -7 5
-4 10 3 6 8 10 11 10 2 0 4 -4 4 -10z m141 -571 c-2 -8 -3 -22 -3 -32 1 -12
-5 -17 -16 -15 -21 4 -28 34 -11 54 14 17 36 12 30 -7z m-341 -279 c0 -5 -2
-10 -4 -10 -3 0 -8 5 -11 10 -3 6 -1 10 4 10 6 0 11 -4 11 -10z m-3373 -966
c-3 -3 -12 -4 -19 -1 -8 3 -5 6 6 6 11 1 17 -2 13 -5z m4343 -550 c11 -29 -6
-63 -35 -70 -51 -13 -75 46 -34 85 25 23 58 16 69 -15z m-5056 -24 c25 -27 46
-56 46 -64 0 -8 9 -18 20 -21 23 -7 27 -33 6 -41 -10 -4 -13 -15 -9 -40 4 -26
1 -40 -14 -57 -11 -12 -31 -44 -43 -72 -13 -27 -41 -77 -62 -110 -28 -45 -38
-71 -38 -102 0 -60 -22 -73 -130 -73 -128 0 -340 50 -340 80 0 4 12 15 26 25
56 37 181 166 251 258 40 54 73 103 73 109 0 14 141 158 155 158 7 0 33 -22
59 -50z m4856 -284 c0 -16 -27 -29 -42 -20 -6 4 -1 12 13 20 30 17 29 17 29 0z
m47 -28 c-3 -8 -6 -5 -6 6 -1 11 2 17 5 13 3 -3 4 -12 1 -19z m913 -212 c0 -7
-7 -19 -15 -26 -8 -7 -15 -18 -15 -26 0 -13 -18 -29 -26 -22 -2 3 5 23 16 46
20 41 40 55 40 28z m-5412 -108 c21 -18 11 -78 -20 -108 -31 -31 -69 -42 -124
-33 -51 8 -74 29 -74 68 0 35 28 67 72 81 35 11 129 6 146 -8z m4202 -188 c0
-23 -56 -59 -105 -67 -30 -5 -35 -3 -35 14 0 22 31 53 75 76 35 18 65 7 65
-23z m1627 -182 c-3 -7 -5 -2 -5 12 0 14 2 19 5 13 2 -7 2 -19 0 -25z m-5973
-340 c46 -24 -63 -46 -120 -24 -17 7 -15 10 16 26 35 18 65 18 104 -2z m-199
-248 c15 -7 10 -9 -23 -9 -26 -1 -41 3 -37 9 7 12 32 12 60 0z m-616 -156 c23
-29 28 -74 9 -74 -6 0 -20 -8 -30 -17 -29 -26 -45 -2 -22 35 14 25 15 33 5 46
-13 15 -8 36 9 36 5 0 18 -12 29 -26z"/>
<path d="M1913 1759 c-18 -12 -33 -25 -33 -30 0 -18 27 -8 55 21 33 35 24 39
-22 9z"/>
<path d="M1384 5359 c3 -19 11 -68 18 -109 l12 -75 16 70 c20 83 17 99 -23
127 l-30 21 7 -34z"/>
<path d="M3030 5354 c0 -8 5 -12 10 -9 6 3 10 10 10 16 0 5 -4 9 -10 9 -5 0
-10 -7 -10 -16z"/>
<path d="M3665 5238 c-22 -5 -52 -11 -67 -15 -32 -6 -43 -18 -52 -56 -9 -39
18 -47 52 -14 15 14 43 28 62 32 46 10 92 34 85 45 -3 4 1 11 7 13 22 9 -45 5
-87 -5z"/>
<path d="M191 5195 c-89 -23 -120 -42 -121 -73 0 -23 30 -24 108 -3 43 12 91
21 106 21 55 0 85 37 54 68 -16 16 -38 14 -147 -13z"/>
<path d="M1984 5156 c-14 -23 -16 -42 -11 -121 7 -100 25 -175 43 -175 6 0 37
9 70 21 41 14 73 19 105 15 79 -8 83 0 63 126 -20 131 -27 140 -121 143 -37 1
-82 5 -100 9 -27 7 -33 5 -49 -18z"/>
<path d="M1783 5162 c-17 -11 -43 -88 -43 -127 0 -18 -6 -38 -13 -44 -8 -6
-19 -29 -26 -52 -12 -40 -12 -42 23 -77 44 -43 45 -63 5 -113 l-30 -39 33 -20
c41 -25 39 -25 87 1 31 16 46 33 65 74 13 29 34 58 45 64 23 13 28 31 9 31 -7
0 -23 15 -35 33 -20 28 -23 47 -23 119 0 83 -1 88 -32 122 -32 37 -44 42 -65
28z"/>
<path d="M980 5042 c0 -72 50 -97 78 -39 13 26 12 31 -9 53 -12 13 -33 24 -46
24 -20 0 -23 -5 -23 -38z"/>
<path d="M3020 4964 c-16 -41 -12 -141 7 -170 l16 -25 14 38 c20 57 27 164 11
175 -23 14 -38 9 -48 -18z"/>
<path d="M1147 4943 c-4 -3 -7 -17 -7 -30 0 -19 5 -23 28 -23 40 0 77 28 61
46 -12 14 -70 19 -82 7z"/>
<path d="M30 4927 c-21 -10 -25 -21 -28 -63 l-3 -51 47 -7 c26 -3 49 -4 52 -2
2 3 8 23 13 45 17 77 -17 110 -81 78z"/>
<path d="M1010 4806 c-18 -10 -25 -23 -26 -47 0 -19 -4 -44 -8 -57 -6 -18 0
-30 27 -57 40 -40 68 -44 98 -14 25 25 23 79 -7 147 -20 46 -39 52 -84 28z"/>
<path d="M5517 4726 c-24 -18 -14 -37 45 -90 23 -22 62 -57 85 -79 24 -23 45
-38 49 -35 8 9 -24 68 -38 68 -20 0 -60 51 -52 69 4 9 7 19 6 23 -3 13 32 -6
54 -29 37 -40 58 -24 42 34 -9 35 -38 49 -83 40 -14 -2 -28 0 -31 4 -8 14 -57
10 -77 -5z"/>
<path d="M5870 4714 c-6 -14 -10 -34 -10 -45 0 -23 -18 -61 -34 -71 -6 -4 -16
-2 -24 4 -9 8 -16 8 -24 0 -6 -6 -17 -8 -24 -5 -21 8 -17 -6 12 -44 15 -20 34
-33 48 -33 20 0 25 -9 40 -64 16 -58 66 -138 79 -126 3 3 7 75 8 161 2 144 1
159 -20 202 -26 53 -37 58 -51 21z"/>
<path d="M1381 4679 c-12 -34 5 -54 55 -67 63 -17 123 -15 131 3 12 34 -41 66
-134 80 -39 6 -44 4 -52 -16z"/>
<path d="M100 4644 c-13 -33 -14 -29 13 -57 12 -13 33 -37 47 -54 14 -16 55
-53 92 -82 51 -40 74 -52 95 -49 26 3 28 6 31 55 4 69 -30 153 -62 153 -12 0
-33 8 -46 18 -22 15 -109 39 -148 41 -7 1 -17 -11 -22 -25z"/>
<path d="M5272 4608 c-37 -49 -36 -63 15 -125 19 -23 34 -44 33 -48 -1 -3 1
-11 3 -18 3 -9 7 -9 17 0 7 7 15 49 17 100 8 138 -23 171 -85 91z"/>
<path d="M3030 4601 c0 -48 18 -143 28 -153 5 -5 16 -6 25 -2 14 5 17 20 17
80 0 62 -3 76 -22 94 -34 31 -48 26 -48 -19z"/>
<path d="M2424 4606 c-11 -8 -15 -18 -10 -23 5 -4 11 -2 13 5 7 17 23 15 23
-4 0 -8 5 -12 10 -9 15 9 12 45 -3 45 -7 0 -22 -6 -33 -14z"/>
<path d="M1744 4569 c-23 -16 -47 -42 -54 -58 -10 -26 -9 -34 9 -60 17 -24 30
-30 68 -33 64 -6 77 -1 96 31 38 65 39 78 6 116 -38 43 -68 44 -125 4z"/>
<path d="M5540 4569 c0 -5 4 -9 9 -9 5 0 16 -15 24 -33 9 -18 32 -47 51 -65
57 -51 48 -63 -45 -63 l-61 -1 6 -61 c5 -43 13 -67 26 -79 11 -9 20 -24 20
-33 0 -19 62 -48 93 -43 11 2 24 11 28 21 5 9 13 25 17 35 5 9 18 21 30 27 29
13 28 19 -14 77 -29 41 -34 55 -29 80 6 27 1 35 -56 88 -60 56 -99 79 -99 59z"/>
<path d="M2305 4520 c-4 -12 -16 -31 -27 -42 -16 -16 -18 -27 -12 -66 3 -26 8
-48 9 -50 2 -2 16 9 31 25 23 23 28 37 29 80 0 58 -18 90 -30 53z"/>
<path d="M2445 4530 c-4 -6 -9 -8 -13 -6 -10 6 -2 -118 9 -128 5 -6 9 0 9 17
0 15 5 27 10 27 6 0 10 -18 10 -40 0 -23 5 -40 11 -40 19 0 5 98 -16 114 -13
9 -16 20 -11 39 6 27 2 35 -9 17z"/>
<path d="M3242 4495 c-13 -29 -1 -41 28 -25 23 12 25 21 8 38 -17 17 -23 15
-36 -13z"/>
<path d="M4878 4415 c0 -6 -1 -17 -2 -25 -1 -8 -18 -23 -39 -33 -59 -28 -44
-49 45 -62 86 -13 132 18 71 47 -15 7 -33 24 -39 36 -15 30 -34 49 -36 37z"/>
<path d="M5405 4378 c-24 -79 -26 -96 -20 -152 3 -35 17 -84 30 -110 16 -31
25 -68 26 -104 2 -43 8 -64 26 -85 12 -16 23 -35 23 -43 0 -19 -35 -18 -54 2
-14 14 -17 13 -34 -3 -45 -43 -56 -76 -53 -163 1 -34 1 -34 16 -12 15 20 22
21 125 19 60 -2 113 -6 116 -10 4 -4 14 -1 22 6 11 8 16 9 19 1 8 -24 30 -47
40 -41 19 12 36 93 24 115 -17 31 -13 83 8 124 17 30 18 41 9 74 -7 22 -20 48
-30 60 -10 11 -18 33 -18 47 0 30 -14 39 -63 41 l-32 1 -5 -80 -5 -80 -21 35
c-24 39 -54 162 -54 222 0 49 -20 97 -54 126 -30 25 -35 27 -41 10z m215 -537
c0 -22 -4 -31 -9 -25 -13 12 -30 91 -23 99 10 10 31 -39 32 -74z"/>
<path d="M3393 4355 c-12 -8 -28 -28 -35 -43 -8 -15 -21 -37 -29 -50 -13 -22
-12 -25 21 -53 33 -28 128 -71 141 -63 19 11 59 83 53 97 -3 9 -10 15 -14 12
-5 -3 -18 15 -30 40 -37 76 -63 91 -107 60z"/>
<path d="M2440 4334 c0 -37 9 -48 27 -33 10 9 13 6 13 -16 0 -17 -5 -25 -12
-22 -7 2 -21 -9 -31 -26 -11 -18 -23 -27 -32 -23 -12 4 -15 -4 -15 -35 0 -24
-4 -38 -10 -34 -5 3 -10 17 -10 31 0 19 -6 26 -30 30 -16 4 -35 13 -41 20 -6
8 -15 12 -19 9 -5 -3 -15 3 -22 13 -22 31 -50 40 -108 33 -86 -10 -147 -40
-167 -81 -14 -31 -15 -47 -5 -147 14 -132 39 -198 79 -214 35 -14 213 -13 227
1 7 7 6 20 -2 43 -7 18 -12 43 -12 54 0 25 65 83 92 83 15 0 18 9 18 50 0 40
3 48 15 44 8 -4 17 1 21 10 17 44 44 -17 51 -115 5 -74 5 -77 -19 -93 -37 -24
-50 -60 -43 -125 12 -101 53 -149 104 -121 7 4 28 3 46 -3 41 -12 72 -3 56 17
-6 7 -15 56 -20 108 -6 63 -16 107 -31 135 -30 58 -39 178 -16 223 18 37 21
54 7 46 -9 -6 -41 36 -41 55 0 18 -32 80 -38 74 -3 -3 -12 5 -19 17 -12 23
-12 22 -13 -8z"/>
<path d="M1775 4325 c-39 -17 -70 -51 -56 -60 22 -13 10 -25 -24 -25 -20 0
-42 -8 -52 -18 -10 -10 -49 -40 -86 -67 l-68 -50 100 -15 c54 -9 106 -22 116
-30 26 -21 45 -66 45 -104 0 -32 1 -34 27 -27 37 10 44 51 26 149 -23 118 -22
126 8 130 41 5 68 75 42 111 -16 24 -35 25 -78 6z"/>
<path d="M4074 4316 c-7 -18 12 -46 31 -46 9 0 11 8 6 27 -8 31 -28 41 -37 19z"/>
<path d="M4658 4286 c-10 -7 -18 -18 -18 -25 0 -6 -3 -11 -8 -11 -12 0 -35
-61 -36 -97 -1 -34 1 -35 64 -60 36 -13 73 -29 82 -34 27 -14 45 -12 30 3 -19
19 -14 30 11 23 17 -5 19 -4 7 4 -11 8 -12 13 -3 19 9 6 5 13 -12 26 -34 25
-65 78 -65 109 0 54 -18 69 -52 43z"/>
<path d="M2936 4220 c-25 -26 -36 -45 -32 -56 4 -10 12 -14 24 -9 9 3 29 9 45
12 35 7 41 17 27 43 -9 16 -8 25 1 36 9 11 8 14 -7 14 -11 0 -36 -18 -58 -40z"/>
<path d="M150 4229 c0 -23 44 -89 64 -95 12 -4 57 -39 100 -78 69 -62 84 -83
122 -163 24 -50 44 -94 44 -97 0 -3 23 -44 51 -91 27 -47 61 -114 74 -148 57
-151 151 -312 231 -398 13 -14 24 -32 24 -40 0 -8 21 -40 47 -70 25 -30 60
-83 76 -119 29 -61 56 -100 120 -173 l27 -31 0 25 c0 37 -32 132 -73 214 -19
39 -38 81 -42 95 -4 14 -15 36 -24 50 -9 14 -22 36 -27 50 -6 14 -19 42 -28
63 -9 21 -16 45 -16 53 0 9 -8 28 -19 42 -10 15 -50 90 -88 167 -38 77 -86
166 -106 198 -20 31 -37 61 -37 65 0 7 -110 136 -134 157 -6 6 -34 38 -62 71
-45 55 -79 89 -139 137 -153 124 -185 144 -185 116z"/>
<path d="M585 4169 c-16 -14 -38 -29 -48 -32 -27 -10 -32 -35 -14 -72 21 -44
52 -63 113 -71 28 -4 63 -17 81 -30 17 -13 39 -24 48 -24 27 0 75 29 75 46 0
8 -22 39 -50 68 -32 34 -50 62 -50 78 0 66 -95 89 -155 37z"/>
<path d="M4955 4123 c-14 -15 -25 -34 -25 -41 0 -11 -11 -36 -32 -72 -5 -8
-11 -23 -14 -32 -4 -10 -11 -18 -18 -19 -103 -6 -109 -3 -120 54 -4 22 -13 37
-21 37 -17 0 -20 -35 -5 -45 6 -4 6 -10 0 -18 -6 -7 -27 -37 -47 -68 -21 -30
-60 -87 -86 -125 -116 -169 -177 -269 -177 -293 -1 -33 -61 -157 -76 -154 -6
1 -16 -23 -23 -54 -12 -62 -57 -147 -72 -138 -5 4 -9 8 -9 11 0 3 5 2 10 -1 6
-3 10 1 10 9 0 9 -12 18 -27 22 -16 4 -38 13 -51 21 l-23 14 18 -27 c17 -27
17 -28 -1 -21 -16 6 -17 5 -7 -7 7 -8 10 -20 6 -26 -4 -6 -2 -17 5 -25 8 -10
9 -19 0 -35 -6 -11 -8 -24 -5 -29 3 -5 -1 -11 -7 -14 -7 -2 -10 -8 -6 -12 4
-4 16 3 26 15 23 29 34 23 78 -44 63 -93 92 -131 120 -156 24 -22 26 -22 19
-5 -13 35 -25 119 -19 140 8 26 44 65 60 65 22 0 44 -43 44 -85 0 -46 33 -90
76 -101 30 -8 222 1 246 10 9 4 19 19 23 33 3 14 16 39 28 55 22 30 23 30 91
23 67 -6 69 -6 102 26 30 29 37 31 74 25 l42 -6 -7 65 c-6 54 -5 65 8 65 8 0
17 8 21 18 3 9 11 25 18 34 9 13 10 20 1 29 -19 19 -60 2 -67 -26 -6 -24 -8
-25 -23 -9 -20 19 -91 13 -126 -11 -35 -24 -110 -19 -145 10 -35 29 -86 41
-214 51 -88 6 -99 5 -126 -15 -39 -27 -73 -27 -98 2 -40 45 -58 117 -29 117 8
0 15 4 15 10 0 5 12 16 28 24 28 14 50 14 269 1 154 -9 193 -3 193 31 0 14
-10 38 -22 54 -12 16 -19 33 -15 36 9 10 86 23 134 24 24 0 57 9 78 21 29 18
44 20 83 14 105 -18 122 -8 103 62 -13 46 -25 55 -61 40 -14 -5 -29 -11 -35
-13 -5 -2 -20 -6 -32 -10 -14 -4 -23 -2 -23 4 0 6 8 12 18 14 9 3 -3 8 -28 12
-56 10 -66 16 -49 28 11 7 11 11 2 15 -21 8 -15 23 12 33 16 6 25 16 23 26 -4
24 28 42 50 27 9 -6 16 -16 15 -22 -2 -6 15 -20 37 -31 22 -11 40 -25 40 -30
0 -22 19 -8 34 25 17 35 33 145 42 285 l5 76 -68 -1 c-37 -1 -82 -7 -99 -15
-40 -17 -78 -7 -92 25 -15 33 -45 32 -77 -2z m-191 -178 c3 -8 1 -15 -4 -15
-6 0 -10 7 -10 15 0 8 2 15 4 15 2 0 6 -7 10 -15z m-124 -205 c-6 -11 -8 -25
-5 -30 3 -5 1 -19 -5 -31 -9 -16 -8 -24 4 -38 23 -25 31 -78 17 -105 -7 -12
-29 -30 -49 -40 -20 -10 -45 -22 -55 -28 -21 -10 -57 -2 -57 13 0 6 -4 7 -10
4 -5 -3 -10 -3 -10 0 0 10 110 193 118 197 4 2 18 20 31 41 24 39 40 52 21 17z"/>
<path d="M5852 4117 c-6 -7 -15 -25 -21 -40 -6 -15 -14 -27 -18 -27 -5 0 -9
-34 -10 -75 -2 -41 1 -75 5 -75 22 0 44 32 72 104 26 64 30 83 21 102 -12 26
-33 31 -49 11z"/>
<path d="M5370 3978 c0 -13 4 -29 9 -37 7 -11 10 -10 15 6 7 23 -2 53 -15 53
-5 0 -9 -10 -9 -22z"/>
<path d="M2975 3953 c-5 -5 -19 -18 -29 -30 -19 -23 -19 -23 19 -57 45 -41
104 -54 160 -36 35 11 37 14 31 44 -3 17 -15 42 -25 56 -15 22 -27 25 -82 28
-35 1 -68 -1 -74 -5z"/>
<path d="M5908 3920 c-3 -14 -15 -57 -27 -97 -11 -39 -24 -98 -27 -130 -4 -32
-15 -69 -26 -82 -10 -13 -18 -33 -18 -43 0 -22 29 -62 47 -65 14 -3 33 57 33
103 0 17 7 54 15 82 11 36 15 84 13 154 -2 57 -6 92 -10 78z"/>
<path d="M1910 3706 c0 -12 -4 -26 -9 -31 -5 -6 -14 -53 -20 -105 -6 -52 -15
-119 -19 -148 -8 -50 -7 -55 14 -64 33 -15 74 -2 74 23 0 11 4 29 10 39 7 13
6 35 -2 70 -10 44 -9 55 5 80 10 17 17 49 17 82 0 54 -1 55 -35 65 -33 10 -35
10 -35 -11z"/>
<path d="M840 3611 c0 -33 23 -52 41 -34 7 7 2 20 -15 38 l-26 28 0 -32z"/>
<path d="M3083 3633 c9 -2 23 -2 30 0 6 3 -1 5 -18 5 -16 0 -22 -2 -12 -5z"/>
<path d="M5331 3607 c-6 -16 -11 -52 -11 -79 0 -46 2 -51 30 -61 38 -14 38
-29 -1 -67 -26 -25 -30 -32 -19 -45 7 -9 29 -15 51 -15 21 0 50 -5 64 -10 36
-14 70 -3 85 26 12 21 11 27 -7 47 -36 39 -38 65 -7 98 15 16 36 29 45 29 10
0 20 4 24 10 3 5 12 7 20 3 18 -6 19 4 3 21 -14 13 -132 46 -170 46 -13 1 -40
7 -60 14 -37 13 -37 13 -47 -17z"/>
<path d="M1251 3601 c-11 -7 -10 -11 4 -19 23 -12 55 -4 55 14 0 16 -37 19
-59 5z"/>
<path d="M4355 3440 c-3 -5 -1 -10 4 -10 6 0 11 5 11 10 0 6 -2 10 -4 10 -3 0
-8 -4 -11 -10z"/>
<path d="M4222 3403 c22 -21 38 -27 76 -29 46 -1 50 1 50 22 0 29 -5 30 -31 7
-18 -17 -21 -16 -57 5 -53 30 -70 28 -38 -5z"/>
<path d="M5975 3400 c-19 -7 -19 -8 -2 -15 19 -8 31 -2 26 13 -2 5 -13 6 -24
2z"/>
<path d="M4222 3355 c9 -10 21 -16 28 -13 7 2 -1 10 -16 17 -27 12 -28 11 -12
-4z"/>
<path d="M5294 3233 c-8 -30 3 -297 14 -358 6 -32 12 -41 31 -43 35 -5 79 17
90 46 29 80 84 191 117 239 32 46 36 58 28 81 -6 17 -24 34 -48 46 -33 16 -44
17 -72 7 -19 -7 -37 -10 -41 -8 -5 3 -32 8 -60 11 -51 5 -53 4 -59 -21z"/>
<path d="M5884 3173 c-4 -49 -8 -90 -9 -93 -1 -3 -5 -31 -9 -63 -8 -53 -6 -60
14 -79 19 -18 33 -20 123 -19 76 2 108 6 127 19 14 9 31 15 39 14 7 -2 10 1 6
7 -8 13 7 15 21 2 5 -5 39 -12 75 -16 79 -8 98 6 45 32 -20 9 -36 20 -36 25 0
4 -6 8 -14 8 -16 0 -146 125 -146 139 0 5 -19 18 -42 29 -24 11 -52 29 -62 41
-11 12 -27 21 -37 21 -10 0 -21 5 -24 10 -3 6 -19 10 -34 10 -29 0 -29 0 -37
-87z m33 -90 c-3 -10 -5 -2 -5 17 0 19 2 27 5 18 2 -10 2 -26 0 -35z"/>
<path d="M5233 3234 c-8 -21 13 -42 28 -27 13 13 5 43 -11 43 -6 0 -13 -7 -17
-16z"/>
<path d="M1020 3205 c9 -8 24 -12 37 -9 32 9 18 24 -20 24 -27 0 -30 -2 -17
-15z"/>
<path d="M5747 3034 c-12 -12 -8 -65 7 -79 26 -27 34 8 13 58 -7 16 -15 25
-20 21z"/>
<path d="M4141 3010 c-15 -8 -43 -81 -36 -89 9 -8 44 31 54 60 11 31 3 43 -18
29z"/>
<path d="M5529 2939 c-17 -9 -45 -66 -37 -75 12 -11 35 9 47 42 15 40 13 46
-10 33z"/>
<path d="M5080 2913 c-22 -3 -43 -14 -56 -31 -19 -23 -29 -26 -80 -26 -63 0
-89 -15 -89 -51 0 -49 37 -59 87 -23 28 20 34 20 80 9 48 -13 112 -8 122 8 3
5 8 34 12 65 8 63 13 59 -76 49z"/>
<path d="M6325 2898 c-16 -6 -91 -12 -165 -13 -170 -2 -182 -3 -176 -13 8 -13
202 -64 374 -97 40 -8 74 11 96 56 20 40 21 36 -8 54 -31 21 -83 26 -121 13z"/>
<path d="M2030 2823 c-22 -13 -40 -28 -40 -32 0 -12 26 -21 56 -21 17 0 22 -4
18 -15 -4 -9 -19 -15 -35 -15 -16 0 -29 -4 -29 -10 0 -5 15 -10 33 -10 49 0
107 12 107 21 0 5 -7 6 -15 3 -8 -4 -15 -1 -15 4 0 6 7 17 15 26 17 17 20 36
5 36 -5 0 -10 6 -10 14 0 25 -47 24 -90 -1z m90 -22 c0 -11 -39 -25 -47 -18
-3 3 -2 10 2 16 8 13 45 15 45 2z"/>
<path d="M4410 2817 c0 -61 65 -130 136 -145 l39 -8 -42 -24 c-24 -13 -43 -27
-43 -31 0 -16 69 -29 155 -29 91 0 93 1 97 25 7 36 -13 69 -45 73 -32 4 -35
17 -6 32 13 7 19 19 17 33 -3 18 -13 24 -68 34 -36 6 -99 14 -140 17 -54 4
-78 11 -87 23 -12 16 -13 16 -13 0z"/>
<path d="M5451 2784 c-37 -47 -24 -58 23 -21 17 14 26 29 22 35 -11 18 -23 14
-45 -14z"/>
<path d="M5342 2784 c-22 -15 -31 -67 -13 -78 12 -8 38 24 46 55 8 34 -5 43
-33 23z"/>
<path d="M5083 2748 c-31 -15 -34 -58 -6 -88 29 -31 54 -19 67 32 16 62 -7 82
-61 56z"/>
<path d="M1930 2740 c19 -13 30 -13 30 0 0 6 -10 10 -22 10 -19 0 -20 -2 -8
-10z"/>
<path d="M5435 2676 c-32 -15 -55 -33 -63 -51 -7 -15 -11 -30 -8 -32 3 -3 32
16 65 41 91 70 93 83 6 42z"/>
<path d="M4321 2660 c-34 -8 -83 -56 -77 -75 2 -5 14 -9 28 -7 34 3 38 -12 24
-89 -11 -62 -12 -64 -41 -64 -21 0 -33 -7 -40 -23 -5 -12 -13 -22 -17 -22 -5
0 -8 -9 -8 -20 0 -11 -4 -20 -10 -20 -5 0 -7 -6 -4 -13 2 -7 -9 -31 -26 -52
-16 -21 -30 -45 -31 -54 0 -17 -33 -75 -90 -162 -33 -50 -51 -85 -53 -101 -1
-3 -4 -10 -8 -14 -5 -4 -8 -13 -8 -20 0 -7 -14 -34 -31 -59 -17 -25 -32 -51
-33 -58 -1 -7 -12 -31 -26 -52 -13 -22 -23 -46 -21 -54 1 -7 -2 -10 -8 -7 -17
11 -25 -42 -8 -58 12 -13 19 -10 49 22 19 20 58 76 87 124 50 84 102 141 109
119 2 -5 9 -8 15 -5 7 2 17 -8 23 -24 9 -23 21 -31 57 -40 79 -20 110 -16 130
18 10 17 22 30 28 30 5 0 9 6 9 14 0 7 7 19 15 26 8 7 15 22 15 34 0 28 -76
106 -102 106 -12 0 -18 -3 -15 -7 12 -11 -45 -33 -88 -33 -36 0 -48 -5 -70
-31 -44 -53 -39 -25 9 42 70 101 81 110 114 98 52 -20 124 -30 138 -18 8 6 20
7 31 2 10 -5 24 -8 31 -7 6 1 22 2 35 3 37 2 51 16 39 37 -7 13 -29 22 -73 29
-59 9 -65 12 -86 50 -27 49 -22 82 24 149 38 56 41 70 12 61 -17 -6 -20 -4
-16 12 3 10 9 43 12 73 4 30 14 67 21 82 18 35 18 48 -1 48 -8 0 -15 5 -15 10
0 11 -1 11 -49 0z m-164 -472 c-3 -8 -6 -5 -6 6 -1 11 2 17 5 13 3 -3 4 -12 1
-19z m-105 -260 c-7 -7 -12 -8 -12 -2 0 14 12 26 19 19 2 -3 -1 -11 -7 -17z"/>
<path d="M5422 2560 c-12 -11 -26 -20 -32 -20 -6 0 -8 -4 -5 -10 3 -5 2 -10
-4 -10 -6 0 -15 -10 -22 -22 -6 -13 11 -1 40 27 28 27 51 51 51 52 0 7 -7 2
-28 -17z"/>
<path d="M5738 2533 c-31 -69 -47 -138 -37 -154 5 -8 9 -10 9 -4 0 5 5 4 11
-2 7 -7 21 -8 41 -2 17 4 35 6 41 2 17 -10 24 17 26 97 1 60 -2 82 -14 94 -30
30 -54 20 -77 -31z"/>
<path d="M6913 2566 c9 -7 29 -11 43 -8 34 6 11 22 -31 22 -27 -1 -28 -2 -12
-14z"/>
<path d="M7040 2535 c0 -8 -4 -15 -10 -15 -5 0 -10 -9 -10 -20 0 -17 7 -20 46
-20 42 0 47 -3 57 -30 10 -28 15 -30 60 -30 53 0 184 27 192 39 7 13 -38 29
-171 61 -143 34 -164 36 -164 15z"/>
<path d="M1166 2468 c-3 -17 -2 -36 4 -42 7 -7 10 -5 10 6 0 9 7 18 15 22 22
8 19 46 -4 46 -13 0 -20 -10 -25 -32z"/>
<path d="M5450 2490 c0 -5 5 -10 10 -10 6 0 10 5 10 10 0 6 -4 10 -10 10 -5 0
-10 -4 -10 -10z"/>
<path d="M1359 2475 c-21 -11 -28 -25 -34 -62 -11 -64 -7 -104 12 -125 12 -14
14 -23 6 -40 -7 -17 -6 -29 3 -44 8 -11 15 -36 17 -55 3 -24 10 -35 23 -37 14
-2 16 -1 6 6 -11 7 -11 10 2 15 9 4 16 15 16 26 0 18 6 19 60 16 33 -2 65 -7
71 -10 13 -8 69 4 69 15 0 5 -10 12 -22 16 -35 11 -125 72 -132 89 -6 17 -8
75 -3 75 18 0 73 -40 125 -90 55 -53 68 -60 103 -60 48 0 50 10 6 33 -18 10
-55 46 -82 80 -26 34 -70 80 -96 102 -27 22 -49 46 -49 53 0 17 -68 15 -101
-3z"/>
<path d="M4690 2423 c0 -22 2 -25 10 -13 13 20 13 40 0 40 -5 0 -10 -12 -10
-27z"/>
<path d="M4741 2398 c-12 -48 -25 -113 -35 -178 -2 -14 -9 -40 -15 -59 -14
-44 -8 -49 21 -20 44 45 78 96 78 118 0 12 4 20 9 17 5 -3 8 7 7 24 -1 16 1
31 5 32 4 2 2 28 -4 58 -10 43 -16 56 -33 58 -17 2 -23 -6 -33 -50z"/>
<path d="M4418 2393 c-28 -33 -28 -42 -2 -70 l25 -28 20 25 c24 32 24 42 -4
68 -22 21 -24 21 -39 5z"/>
<path d="M4081 2365 c-24 -14 -57 -36 -73 -50 -16 -14 -35 -25 -41 -25 -20 0
-87 -85 -87 -110 0 -5 9 -10 20 -10 11 0 20 5 20 10 0 6 8 10 18 10 9 0 30 9
46 20 37 23 131 115 158 153 18 26 18 27 1 27 -10 0 -38 -11 -62 -25z"/>
<path d="M7585 2319 c8 -65 63 -152 106 -170 16 -6 39 -26 52 -43 24 -35 57
-65 71 -66 5 0 24 -11 42 -25 28 -22 48 -26 129 -32 54 -3 95 -2 95 3 -1 5
-35 36 -77 69 -42 33 -108 87 -148 120 -81 67 -240 184 -263 192 -12 5 -13 -3
-7 -48z"/>
<path d="M2145 2280 c3 -5 8 -10 11 -10 2 0 4 5 4 10 0 6 -5 10 -11 10 -5 0
-7 -4 -4 -10z"/>
<path d="M5680 2239 c0 -18 2 -18 37 -4 51 21 51 24 4 23 -33 0 -41 -4 -41
-19z"/>
<path d="M3818 2163 c7 -3 16 -2 19 1 4 3 -2 6 -13 5 -11 0 -14 -3 -6 -6z"/>
<path d="M5778 2143 c-42 -6 -41 -39 3 -94 32 -41 84 -66 92 -45 3 7 1 37 -5
67 -9 51 -29 81 -52 78 -6 -1 -23 -4 -38 -6z"/>
<path d="M5708 1952 c-20 -4 -23 -19 -8 -42 9 -13 10 -13 10 0 1 9 5 6 10 -7
11 -27 25 -29 46 -8 9 8 11 15 5 15 -6 0 -11 6 -11 13 0 17 -31 34 -52 29z"/>
<path d="M4016 1725 c-30 -23 -56 -67 -56 -97 0 -22 5 -28 22 -28 12 0 31 8
42 19 27 24 79 41 125 41 51 0 74 17 35 25 -80 19 -104 27 -118 40 -18 18 -26
18 -50 0z"/>
<path d="M5662 1673 c-13 -15 -28 -39 -34 -53 -6 -14 -24 -53 -39 -88 -16 -35
-29 -67 -29 -73 0 -5 -5 -15 -10 -22 -6 -7 -26 -33 -46 -59 -19 -27 -48 -55
-63 -63 -16 -8 -45 -37 -66 -65 -36 -48 -91 -97 -101 -87 -9 8 14 54 30 60 21
8 20 34 -1 44 -41 18 -133 0 -133 -26 0 -9 -20 -48 -45 -85 -25 -38 -45 -71
-45 -73 0 -3 -21 -34 -47 -71 -27 -36 -53 -75 -60 -87 -26 -44 -53 -99 -53
-108 0 -4 -13 -27 -29 -50 -55 -82 -56 -86 -19 -101 18 -7 71 -17 118 -20 89
-7 203 -23 233 -32 9 -3 14 -10 11 -16 -5 -7 10 -9 48 -4 97 12 218 -29 251
-85 9 -17 17 -46 17 -65 0 -43 12 -43 46 1 23 30 24 37 13 51 -8 10 -14 43
-14 88 0 39 -4 76 -8 82 -4 7 0 18 9 25 18 15 54 82 54 101 0 7 -11 35 -25 62
-40 79 -29 178 18 160 29 -11 50 -64 56 -139 6 -65 8 -70 34 -79 38 -14 92 16
119 65 l20 36 -40 69 c-22 38 -67 97 -100 130 -73 75 -105 139 -96 196 6 37 8
39 37 32 18 -4 27 -2 24 3 -11 17 32 53 62 53 49 0 68 -73 29 -110 -12 -11
-18 -20 -12 -20 5 0 3 -4 -5 -9 -27 -17 6 -115 63 -189 109 -139 119 -143 91
-40 -9 35 -20 77 -25 93 -4 17 -17 50 -29 75 -11 25 -21 55 -21 67 0 12 -10
41 -22 64 -12 24 -21 59 -21 78 1 35 -42 121 -60 121 -4 0 -7 17 -6 38 3 59
-9 85 -37 79 -29 -5 -40 8 -24 28 6 8 10 21 8 30 -2 13 -8 11 -26 -12z m-214
-1007 c13 -12 11 -16 -16 -30 -38 -19 -130 -21 -155 -2 -16 12 -15 14 15 26
18 6 42 16 53 21 27 12 85 3 103 -15z"/>
<path d="M5310 1290 c0 -5 5 -10 10 -10 6 0 10 5 10 10 0 6 -4 10 -10 10 -5 0
-10 -4 -10 -10z"/>
<path d="M1712 1031 c-11 -6 -11 -19 2 -68 9 -34 16 -72 16 -86 0 -28 22 -41
39 -24 6 6 11 45 11 89 0 75 -1 79 -26 88 -30 12 -26 12 -42 1z"/>
<path d="M2440 938 c-12 -22 -12 -22 6 -6 10 10 15 20 12 24 -4 3 -12 -5 -18
-18z"/>
<path d="M1295 810 c-3 -5 -12 -7 -20 -3 -8 3 -15 1 -15 -5 0 -6 6 -12 13 -15
9 -3 9 -7 -1 -19 -15 -18 -6 -48 14 -48 8 0 14 7 14 16 0 8 -4 12 -10 9 -15
-9 -12 4 5 21 14 14 19 11 16 -9 -1 -5 6 -7 16 -5 24 4 23 30 0 34 -25 3 -35
14 -13 14 9 0 14 5 11 10 -8 13 -22 13 -30 0z"/>
<path d="M1363 745 c-8 -22 10 -51 30 -47 23 4 32 -36 13 -57 -20 -22 -20 -31
-1 -31 8 0 15 7 15 15 0 19 14 19 30 0 15 -19 120 -19 120 0 0 20 46 45 82 45
19 0 28 4 23 9 -13 11 -143 48 -215 60 -30 5 -63 13 -72 16 -12 5 -20 1 -25
-10z"/>
<path d="M1320 668 c0 -23 17 -23 29 0 7 14 6 18 -10 18 -12 0 -19 -7 -19 -18z"/>
<path d="M1569 590 c9 -5 7 -21 -8 -61 l-21 -53 23 -33 c12 -18 28 -35 34 -38
21 -8 46 40 38 75 -4 19 -2 36 5 45 7 8 9 26 5 44 -6 27 -10 30 -47 29 -22 0
-35 -4 -29 -8z"/>
<path d="M1440 536 c0 -18 39 -66 53 -66 7 0 2 9 -11 18 -21 16 -22 20 -8 31
9 7 13 17 10 22 -8 14 -44 10 -44 -5z"/>
<path d="M1485 510 c-3 -5 1 -13 10 -16 22 -9 29 1 11 15 -10 8 -16 9 -21 1z"/>
<path d="M1320 490 c0 -5 5 -10 10 -10 6 0 10 5 10 10 0 6 -4 10 -10 10 -5 0
-10 -4 -10 -10z"/>
<path d="M1357 483 c-15 -14 -6 -23 19 -17 20 5 26 2 31 -15 3 -11 9 -21 13
-21 5 0 15 -3 24 -6 11 -4 16 -1 16 11 0 9 -4 13 -10 10 -5 -3 -10 1 -10 9 0
26 -64 48 -83 29z"/>
<path d="M1503 455 c-15 -17 -17 -39 -3 -30 14 8 32 45 23 45 -4 -1 -14 -7
-20 -15z"/>
<path d="M1520 409 c-13 -23 -8 -35 10 -24 6 4 9 13 6 20 -3 8 0 16 7 19 9 3
9 5 0 5 -7 1 -17 -8 -23 -20z"/>
<path d="M1567 358 c-7 -21 12 -48 33 -48 23 0 27 15 5 24 -8 3 -15 12 -15 21
0 18 -16 20 -23 3z"/>
<path d="M1273 343 c0 -20 20 -43 36 -43 15 0 13 21 -3 43 -17 22 -33 22 -33
0z"/>
<path d="M1488 323 c7 -3 16 -2 19 1 4 3 -2 6 -13 5 -11 0 -14 -3 -6 -6z"/>
<path d="M1610 290 c20 -13 33 -13 25 0 -3 6 -14 10 -23 10 -15 0 -15 -2 -2
-10z"/>
<path d="M1645 260 c-3 -5 -1 -10 4 -10 6 0 11 5 11 10 0 6 -2 10 -4 10 -3 0
-8 -4 -11 -10z"/>
<path d="M1657 229 c7 -7 15 -10 18 -7 3 3 -2 9 -12 12 -14 6 -15 5 -6 -5z"/>
</g>
</svg>
